<svg id="레이어_1" data-name="레이어 1" xmlns="http://www.w3.org/2000/svg" viewBox="0 0 95 820"><defs><style>.cls-1{font-size:36px;font-family:NotoSansKR-Regular-KSCpc-EUC-H, Noto Sans KR;}.cls-2{fill:none;stroke:#000;stroke-miterlimit:10;stroke-width:2px;}</style></defs><text class="cls-1" transform="translate(26.47 53.68)">01</text><line class="cls-2" x1="48.97" y1="76" x2="48.97" y2="453"/><path d="M61.3,489.54v4l-14.15,5.07c-1.83.62-3.67,1.23-5.5,1.88v.18c1.83.61,3.67,1.18,5.5,1.79l14.15,5v4H34.88v-3.14H49.49c2.27,0,5.48.26,7.78.44v-.15l-6-2.09-13.72-5V499.4l13.72-5,6-2.09v-.15c-2.3.15-5.51.4-7.78.4H34.88v-3Z"/><path d="M60.65,517.94a2.2,2.2,0,1,1-2.19,2.2A2.07,2.07,0,0,1,60.65,517.94Zm-6.22.54v3.28H34.88v-3.28Z"/><path d="M44.63,527c6.34,0,10.3,4,10.3,8.46a8,8,0,0,1-2.3,5.5L56,540.8h7.52V544H34.88v-2.66l2.3-.29V541A8.73,8.73,0,0,1,34.41,535C34.41,530.14,38.12,527,44.63,527ZM39.85,540.8H50.11a7,7,0,0,0,2-4.79c0-3.17-3-5.65-7.49-5.65-4.72,0-7.52,1.94-7.52,5.4C37.15,537.56,38.05,539.14,39.85,540.8Z"/><path d="M61.3,564.52v3.71l-26.42,9v-3.52l8.06-2.52V561.5l-8.06-2.56v-3.38Zm-15.69-2.19v8l4-1.26c3-1,5.86-1.8,8.92-2.66v-.15c-3.09-.83-5.93-1.69-8.92-2.63Z"/><path d="M60.65,580.08a2.2,2.2,0,1,1-2.19,2.19A2.06,2.06,0,0,1,60.65,580.08Zm-6.22.54v3.27H34.88v-3.27Z"/><path d="M54.43,590.52v2.7l-3.57.28v.11c2.49,1.37,4.07,3.35,4.07,5.55a4.18,4.18,0,0,1-.43,2.08l-2.88-.61a4.68,4.68,0,0,0,.32-1.91c0-1.62-1.15-3.63-4.5-4.93H34.88v-3.27Z"/></svg>