<svg id="Layer_1" data-name="Layer 1" xmlns="http://www.w3.org/2000/svg" viewBox="0 0 192.1 139"><defs><style>.cls-1{fill:#bd191a;}.cls-2{fill:#fff;}</style></defs><path class="cls-1" d="M257.1,97.1v139H201.6V166.6C201.6,128.2,226.5,97.1,257.1,97.1Z" transform="translate(-201.6 -97.1)"/><path class="cls-1" d="M302.1,183.2c-11.9,12.7-19.5,31.7-19.5,52.9H266.1V166.6C279.9,166.6,292.4,172.9,302.1,183.2Z" transform="translate(-201.6 -97.1)"/><path class="cls-2" d="M338.1,166.6v69.5H282.6c0-21.2,7.6-40.2,19.5-52.9C311.8,172.9,324.4,166.6,338.1,166.6Z" transform="translate(-201.6 -97.1)"/><path class="cls-2" d="M338.1,166.6V97.1h55.6C393.7,135.5,368.8,166.6,338.1,166.6Z" transform="translate(-201.6 -97.1)"/><circle class="cls-2" cx="98" cy="29.7" r="29.7"/></svg>