<svg id="Layer_1" data-name="Layer 1" xmlns="http://www.w3.org/2000/svg" viewBox="0 0 192.1 139"><defs><style>.cls-1{fill:#bd191a;}</style></defs><path class="cls-1" d="M273.1,370.6V509.5H217.6V440.1C217.6,401.7,242.5,370.6,273.1,370.6Z" transform="translate(-217.6 -370.6)"/><path class="cls-1" d="M318.1,456.6c-11.9,12.8-19.5,31.8-19.5,52.9H282.1V440.1C295.8,440.1,308.4,446.3,318.1,456.6Z" transform="translate(-217.6 -370.6)"/><path d="M354.1,440.1v69.4H298.6c0-21.1,7.6-40.1,19.5-52.9C327.8,446.3,340.4,440.1,354.1,440.1Z" transform="translate(-217.6 -370.6)"/><path d="M354.1,440.1V370.6h55.6C409.7,409,384.8,440.1,354.1,440.1Z" transform="translate(-217.6 -370.6)"/><circle cx="98" cy="29.7" r="29.7"/></svg>