<?xml version="1.0" encoding="utf-8"?>
<!-- Generator: Adobe Illustrator 22.1.0, SVG Export Plug-In . SVG Version: 6.00 Build 0)  -->
<svg version="1.1" id="Layer_1" xmlns="http://www.w3.org/2000/svg" xmlns:xlink="http://www.w3.org/1999/xlink" x="0px" y="0px"
	 viewBox="0 0 268.3 101.4" style="enable-background:new 0 0 268.3 101.4;" xml:space="preserve">
<style type="text/css">
	.st0{fill:#FFFFFF;}
</style>
<g id="g">
	<path class="st0" d="M95.8,52.1v9.5h-0.5c-1.3-0.4-2.6-1-3.7-1.8c-1.3-0.8-2.4-1.9-3.3-3.1c-1-1.3-1.8-2.7-2.4-4.2
		C85.3,50.7,85,48.9,85,47c0-1.8,0.3-3.7,0.9-5.4c0.5-1.6,1.3-3,2.4-4.3c0.9-1.2,2.1-2.2,3.3-3c1.1-0.8,2.4-1.4,3.7-1.8l0.4,0.7
		c-1,0.3-1.9,0.7-2.8,1.2c-0.9,0.5-1.8,1.1-2.5,1.9v21.5c1.3,1.2,2.8,2.2,4.5,2.8v-8.4L95.8,52.1z"/>
	<path class="st0" d="M101,32.8h2c1,0,2,0.1,2.9,0.4c0.7,0.2,1.3,0.6,1.8,1.1c0.5,0.4,0.8,0.9,1,1.5c0.2,0.5,0.3,1.1,0.3,1.6
		c0,1.1-0.3,2.2-1,3c-0.6,0.7-1.3,1.3-2.2,1.7l18.5,18.8h-1.2l-17.8-18.1v18.1H101V32.8z M108.1,37.4c0-0.8-0.2-1.6-0.7-2.3
		c-0.5-0.7-1.3-1.1-2.1-1.2v7.5c0.8-0.2,1.5-0.7,2-1.4C107.9,39.3,108.2,38.3,108.1,37.4z"/>
	<path class="st0" d="M127.3,32.9h9.9v0.8h-5.6v7.9h8.4v0.8h-8.4v17.7h6v0.8h-10.3V32.9z"/>
	<path class="st0" d="M144.6,32.9h9.9v0.8h-5.6v7.9h8.4v0.8h-8.4v17.7h6v0.8h-10.3V32.9z"/>
	<path class="st0" d="M179.5,32.9v28h-0.9v-7l-15.8-14.6v21.6h-0.9V32.7l16.7,15.4V32.9H179.5z"/>
	<circle class="st0" cx="80.3" cy="3.2" r="3.2"/>
	<circle class="st0" cx="1.8" cy="30.9" r="1.8"/>
	<circle class="st0" cx="39.4" cy="75.3" r="2.2"/>
	<circle class="st0" cx="156.3" cy="99.3" r="2.1"/>
	<circle class="st0" cx="238.7" cy="71.9" r="1.5"/>
	<circle class="st0" cx="265.8" cy="40.8" r="2.5"/>
</g>
</svg>
