<?xml version="1.0" encoding="utf-8"?>
<!-- Generator: Adobe Illustrator 22.1.0, SVG Export Plug-In . SVG Version: 6.00 Build 0)  -->
<svg version="1.1" id="Layer_1" xmlns="http://www.w3.org/2000/svg" xmlns:xlink="http://www.w3.org/1999/xlink" x="0px" y="0px"
	 viewBox="0 0 316 331.4" style="enable-background:new 0 0 316 331.4;" xml:space="preserve">
<style type="text/css">
	.st0{display:none;}
	.st1{display:inline;}
	.st2{clip-path:url(#SVGID_2_);}
</style>
<g class="st0">
	<g class="st1">
		<defs>
			<circle id="SVGID_1_" cx="158" cy="173.4" r="158"/>
		</defs>
		<clipPath id="SVGID_2_">
			<use xlink:href="#SVGID_1_"  style="overflow:visible;"/>
		</clipPath>
		<g class="st2">
			
				<image style="overflow:visible;enable-background:new    ;" width="473" height="386" xlink:href="../../../09/라라랜드/lalaland/source/mia_2.png"  transform="matrix(1 0 0 1 -118.6333 -4)">
			</image>
		</g>
	</g>
</g>
<path d="M228.8,8.7l-8.7,4.4l-4.5-9l-4.8,12.6l-0.5-0.2L216.5,0l5.8,11.4l10.4-5.3l-6.2,16.5l-2.6-0.9L228.8,8.7z"/>
<path d="M237.5,8.7l2.4,1.1l-7.6,15.8l-2.4-1.2L237.5,8.7z"/>
<path d="M234.2,26.2L251,15.1l-1.4,20.1l-2.6-1.5l0.2-3.2l-9.8-5.8l-2.7,1.8L234.2,26.2z M237.8,24.4l9.5,5.5l0.8-12.2L237.8,24.4z"
	/>
</svg>
