<?xml version="1.0" encoding="utf-8"?>
<!-- Generator: Adobe Illustrator 22.1.0, SVG Export Plug-In . SVG Version: 6.00 Build 0)  -->
<svg version="1.1" id="Layer_1" xmlns="http://www.w3.org/2000/svg" xmlns:xlink="http://www.w3.org/1999/xlink" x="0px" y="0px"
	 viewBox="0 0 276 128.7" style="enable-background:new 0 0 276 128.7;" xml:space="preserve">
<style type="text/css">
	.st0{fill:#FFFFFF;}
</style>
<g id="y">
	<path class="st0" d="M76.8,49.8L84,61.2l7.1-11.4h1l-7.8,12.5v15.5H80V62.6l-8-12.8H76.8z"/>
	<path class="st0" d="M95.7,49.8h9.9v0.8H100v7.8h8.4v0.8H100V77h6v0.8H95.7V49.8z"/>
	<path class="st0" d="M113,49.8h4.3V77h6v0.8H113V49.8z"/>
	<path class="st0" d="M127.5,49.8h4.3V77h6v0.8h-10.3V49.8z"/>
	<path class="st0" d="M139.9,63.8c0-2,0.4-3.9,1.2-5.7c0.7-1.7,1.8-3.3,3.1-4.6c1.3-1.4,2.9-2.5,4.6-3.2c1.8-0.7,3.7-1.1,5.7-1.1
		c1.9,0,3.8,0.4,5.6,1.1c1.8,0.7,3.4,1.8,4.7,3.2c1.3,1.3,2.4,2.9,3.1,4.6c0.8,1.8,1.1,3.7,1.1,5.7c0,1.9-0.3,3.8-1.1,5.6
		c-0.8,1.7-1.8,3.3-3.1,4.7c-1.4,1.3-3,2.4-4.7,3.1c-1.8,0.7-3.7,1.1-5.6,1.1c-2,0-3.9-0.4-5.7-1.1c-3.5-1.5-6.3-4.3-7.7-7.8
		C140.3,67.6,139.9,65.7,139.9,63.8z M154.5,50c-1.7,0-3.4,0.3-5,1c-1.5,0.6-2.9,1.5-4.1,2.6v20.3c1.2,1.1,2.6,2,4.1,2.7
		c1.6,0.6,3.3,0.9,5,0.9c1.8,0,3.6-0.3,5.3-1.1c1.6-0.7,3.1-1.7,4.3-2.9c1.3-1.2,2.3-2.7,3-4.4c0.7-1.7,1.1-3.5,1.1-5.3
		c0-1.9-0.4-3.7-1.1-5.4c-0.7-1.6-1.7-3.1-3-4.4c-1.2-1.2-2.7-2.2-4.3-2.9C158.1,50.4,156.3,50,154.5,50z"/>
	<path class="st0" d="M211.4,49.8l-14.3,28.8L190.4,65l-6.8,13.6l-14.3-28.8h4.9l11.3,23l4.4-8.8l-7.1-14.2h4.9l4.6,9.4l4.7-9.4h0.9
		l-5.1,10.3l6.2,12.7l11.5-23H211.4z"/>
	<circle class="st0" cx="2" cy="77.1" r="2"/>
	<circle class="st0" cx="101.7" cy="126.7" r="2"/>
	<circle class="st0" cx="232.3" cy="92.8" r="3.9"/>
	<circle class="st0" cx="196.5" cy="28.6" r="1.6"/>
	<circle class="st0" cx="274" cy="24.2" r="2"/>
	<circle class="st0" cx="69.5" cy="2.7" r="2.7"/>
</g>
</svg>
