<?xml version="1.0" encoding="utf-8"?>
<!-- Generator: Adobe Illustrator 22.1.0, SVG Export Plug-In . SVG Version: 6.00 Build 0)  -->
<svg version="1.1" id="Layer_1" xmlns="http://www.w3.org/2000/svg" xmlns:xlink="http://www.w3.org/1999/xlink" x="0px" y="0px"
	 viewBox="0 0 313 130.4" style="enable-background:new 0 0 313 130.4;" xml:space="preserve">
<style type="text/css">
	.st0{fill:#FFFFFF;}
</style>
<g>
	<path class="st0" d="M64.7,50.9h1.9c1,0,2,0.2,3,0.5c0.7,0.2,1.3,0.5,1.8,1c0.4,0.4,0.8,0.9,1,1.5c0.2,0.5,0.3,1.1,0.3,1.7
		c0,0.9-0.3,1.8-0.8,2.6c-0.5,0.7-1.1,1.2-1.8,1.6h1.1c1.4,0,2.7,0.2,4,0.8c1.2,0.5,2.2,1.2,3.1,2.1c0.9,0.9,1.5,1.9,2,3.1
		c0.5,1.1,0.8,2.4,0.8,3.6c0,1.3-0.3,2.6-0.8,3.8c-0.5,1.2-1.2,2.2-2.1,3.1c-0.9,0.9-2.1,1.6-3.3,2.1c-1.3,0.6-2.7,0.9-4.1,0.8h-2.1
		l-4-0.3V50.9z M71.8,55.6c0-0.9-0.3-1.7-0.8-2.4c-0.5-0.6-1.2-1-2-1.2v7.6c0.8-0.2,1.5-0.7,2-1.4C71.5,57.5,71.8,56.6,71.8,55.6
		L71.8,55.6z M70.8,60.6H69v17.8h1.8c1.3,0,2.6-0.2,3.8-0.7c1.1-0.5,2.1-1.2,3-2c0.8-0.8,1.4-1.8,1.9-2.8c0.5-1.1,0.7-2.3,0.7-3.5
		S80,67.1,79.5,66c-0.5-1-1.1-2-1.9-2.8c-0.9-0.8-1.9-1.5-3-1.9C73.4,60.9,72.1,60.6,70.8,60.6L70.8,60.6z"/>
	<path class="st0" d="M86,51.1h4.3v27.2h6v0.8H86V51.1z"/>
	<path class="st0" d="M116.2,51.1h0.9v20.2c0,1.1-0.2,2.2-0.7,3.2s-1.1,2-2,2.7c-0.8,0.7-1.8,1.3-2.8,1.8c-1.1,0.4-2.2,0.6-3.3,0.6
		c-1.2,0-2.3-0.2-3.4-0.6c-1-0.4-1.9-1-2.7-1.8c-0.8-0.8-1.4-1.7-1.9-2.7c-0.4-1.1-0.6-2.2-0.6-3.3V51.1h4.3v20.2
		c0,1.1,0.2,2.2,0.5,3.2c0.2,0.8,0.6,1.6,1.2,2.2c0.5,0.6,1.1,1.1,1.8,1.3c0.7,0.3,1.4,0.5,2.2,0.5c0.8,0,1.6-0.2,2.3-0.6
		c0.8-0.4,1.5-0.9,2.1-1.6c0.7-0.7,1.2-1.4,1.6-2.3c0.3-0.9,0.5-1.8,0.5-2.7V51.1L116.2,51.1z"/>
	<path class="st0" d="M123.3,51.1h9.9v0.8h-5.6v7.8h8.4v0.8h-8.4v17.8h6v0.8h-10.3L123.3,51.1L123.3,51.1z"/>
	<path class="st0" d="M175.1,79.1l-4.3-6.6c-0.4,1.1-1,2.2-1.7,3.2c-0.7,0.8-1.4,1.6-2.3,2.2c-0.9,0.6-1.8,1-2.8,1.3s-2,0.4-3,0.4
		c-1.3,0-2.7-0.2-3.9-0.8c-2.3-1-4.2-2.9-5.2-5.2c-1.1-2.5-1.1-5.3,0-7.8c1-2.3,2.9-4.2,5.2-5.2c1.2-0.6,2.6-0.8,3.9-0.8h1.5
		l-5.7-8.7h10.5v4.2h-6.7l15.5,23.8H175.1z M161,78.8c1,0,2-0.1,3-0.5c0.9-0.3,1.8-0.8,2.6-1.4c0.8-0.7,1.6-1.4,2.2-2.3
		c0.6-1,1.1-2,1.4-3.1L163,60.6h-2c-0.9,0-1.7,0.1-2.6,0.3c-0.8,0.3-1.5,0.6-2.2,1.1v15.5C157.6,78.4,159.3,78.9,161,78.8z"/>
	<path class="st0" d="M191.9,50.9h1.9c1,0,2,0.2,3,0.5c0.7,0.2,1.3,0.5,1.8,1c0.4,0.4,0.8,0.9,1,1.5c0.2,0.5,0.3,1.1,0.3,1.7
		c0,1.1-0.3,2.1-1,2.9c-0.6,0.7-1.4,1.3-2.2,1.8l18.5,18.8H214L196.2,61v18.1h-4.3V50.9L191.9,50.9z M199,55.6
		c0-0.9-0.3-1.7-0.8-2.4c-0.5-0.6-1.2-1-2-1.2v7.6c0.8-0.3,1.5-0.8,2-1.4C198.7,57.5,199,56.6,199,55.6z"/>
	<path class="st0" d="M218.2,51.1h9.9v0.8h-5.6v7.8h8.4v0.8h-8.4v17.8h6v0.8h-10.3L218.2,51.1L218.2,51.1z"/>
	<path class="st0" d="M248.3,65.1c0,1.8-0.3,3.5-0.9,5.2c-0.6,1.6-1.4,3.2-2.4,4.6c-1.1,1.3-2.4,2.4-3.9,3.3
		c-1.5,0.8-3.2,1.2-4.9,1.2h-0.7V50.7h0.7c1.7,0,3.4,0.4,4.9,1.3c1.5,0.8,2.8,1.9,3.9,3.3c1,1.4,1.8,3,2.4,4.6
		C248,61.6,248.3,63.4,248.3,65.1z M247.4,65.1c0-1.6-0.2-3.1-0.7-4.6c-0.5-1.3-1.1-2.6-1.9-3.8c-0.7-1.1-1.5-2.1-2.5-2.9
		c-0.8-0.6-1.6-1.1-2.5-1.5v25.5c0.9-0.4,1.7-0.9,2.5-1.5c1-0.8,1.8-1.8,2.5-2.9c0.8-1.2,1.4-2.5,1.9-3.8
		C247.2,68.3,247.4,66.8,247.4,65.1z"/>
</g>
<circle class="st0" cx="3.2" cy="46.4" r="3.2"/>
<circle class="st0" cx="85.6" cy="127.9" r="2.5"/>
<circle class="st0" cx="310.5" cy="100.9" r="2.5"/>
<circle class="st0" cx="229.5" cy="15.9" r="1.6"/>
<circle class="st0" cx="297" cy="4.3" r="4.3"/>
</svg>
