<?xml version="1.0" encoding="utf-8"?>
<!-- Generator: Adobe Illustrator 22.1.0, SVG Export Plug-In . SVG Version: 6.00 Build 0)  -->
<svg version="1.1" id="Layer_1" xmlns="http://www.w3.org/2000/svg" xmlns:xlink="http://www.w3.org/1999/xlink" x="0px" y="0px"
	 viewBox="0 0 315.5 333.3" style="enable-background:new 0 0 315.5 333.3;" xml:space="preserve">
<style type="text/css">
	.st0{display:none;}
	.st1{fill:#FFFFFF;}
</style>
<circle class="st0" cx="157.5" cy="175.3" r="158"/>
<path class="st1" d="M221.1,0.4c-0.7-0.1-1.5,0-2.2,0.3c-0.6,0.5-0.9,1.1-1.1,1.8c-0.3,0.5-0.4,1.1-0.3,1.7c0,0.5,0.1,1,0.2,1.5
	l0.6,1.4c0.2,0.4,0.3,0.9,0.5,1.4c0.1,0.5,0.2,1.1,0.2,1.6c0,0.7-0.2,1.4-0.4,2c-0.2,0.8-0.7,1.5-1.4,2c-0.6,0.5-1.3,0.9-2,1.1
	c-0.7,0.3-1.5,0.5-2.3,0.6l-2.1,0.2v-0.5h1.7l1.4-0.5c0.5-0.2,0.9-0.6,1.2-1c0.4-0.5,0.7-1.1,0.9-1.7c0.2-0.5,0.3-1.1,0.3-1.7
	c0-0.5-0.1-1-0.2-1.5c-0.1-0.5-0.3-1-0.5-1.4c-0.2-0.4-0.4-0.9-0.5-1.4c-0.1-0.5-0.2-1-0.2-1.5c0-0.6,0.1-1.2,0.3-1.8
	c0.2-0.5,0.4-1,0.8-1.4c0.4-0.4,0.9-0.7,1.4-1l1.8-0.5c0.6-0.1,1.3-0.2,1.9-0.1L221.1,0.4z"/>
<path class="st1" d="M226.3,2.4l5.8,2.4l-0.2,0.4l-3.3-1.3l-1.8,4.6l4.8,1.9l-0.2,0.5l-4.8-2l-4.2,10.3l3.5,1.4l-0.2,0.4l-6-2.4
	L226.3,2.4z"/>
<path class="st1" d="M237.2,6.9l1.1,0.6c0.6,0.2,1.1,0.6,1.5,1c0.3,0.4,0.6,0.8,0.8,1.2c0.1,0.4,0.1,0.7,0.1,1.1l-0.3,1
	c-0.3,0.5-0.7,0.9-1.2,1.2c-0.4,0.3-0.9,0.4-1.4,0.4h0.3l0.3,0.2c0.8,0.4,1.5,0.9,2,1.6c0.5,0.6,0.9,1.3,1.1,2
	c0.3,0.7,0.4,1.5,0.3,2.3c0,0.8-0.2,1.5-0.6,2.2c-0.3,0.8-0.8,1.4-1.5,1.9c-0.6,0.6-1.2,1-2,1.2c-0.8,0.2-1.6,0.3-2.4,0.3
	c-0.9-0.1-1.8-0.3-2.6-0.7l-1.1-0.6l-2.2-1.2L237.2,6.9z M237.9,14l-0.4-0.2l-0.6-0.2l-4.9,9.9l0.5,0.3L233,24
	c0.7,0.4,1.5,0.6,2.3,0.7c0.7,0,1.5-0.1,2.2-0.3c0.7-0.2,1.4-0.6,1.9-1.1c0.5-0.5,1-1.1,1.3-1.7c0.4-0.6,0.6-1.4,0.6-2.1
	c0-0.7-0.1-1.4-0.3-2.1c-0.2-0.7-0.6-1.4-1.1-1.9C239.3,14.9,238.6,14.4,237.9,14z M239.9,11.5c0.3-0.5,0.3-1,0.2-1.5
	c-0.1-0.5-0.4-1-0.8-1.3l-2.1,4.3c0.5,0.1,1.1,0,1.5-0.3C239.2,12.5,239.6,12.1,239.9,11.5z"/>
<path class="st1" d="M238.9,27.2L256,16.7l-2,20l-2.5-1.6l0.3-3.2l-9.7-6l-2.7,1.7L238.9,27.2z M242.6,25.6l9.2,5.7l1.2-12.2
	L242.6,25.6z"/>
<path class="st1" d="M268.8,26c-0.7-0.4-1.4-0.5-2.2-0.4c-0.7,0.2-1.2,0.7-1.6,1.3c-0.4,0.5-0.7,1-0.9,1.6c-0.1,0.5-0.2,1-0.2,1.5
	c0,0.5,0.1,1,0.1,1.5c0.1,0.5,0.1,1,0.1,1.5c-0.1,0.5-0.2,1.1-0.4,1.6c-0.2,0.7-0.5,1.3-0.9,1.8c-0.5,0.7-1.1,1.2-1.9,1.5
	c-0.7,0.3-1.5,0.4-2.3,0.4c-0.8,0-1.5,0-2.3-0.2l-2.1-0.4v-0.5l1.7,0.4h1.5c0.5-0.1,1-0.3,1.5-0.6c0.5-0.4,0.9-0.8,1.3-1.3
	c0.4-0.5,0.7-1,0.8-1.6c0.1-0.5,0.2-1,0.3-1.5c0-0.5,0-0.9-0.1-1.4c-0.1-0.5-0.1-1,0-1.5c0-0.5,0.1-1,0.2-1.5
	c0.1-0.6,0.4-1.1,0.8-1.6c0.4-0.4,0.8-0.8,1.3-1.1c0.5-0.3,1-0.4,1.6-0.5c0.6-0.1,1.3-0.1,1.9,0l1.8,0.5L268.8,26z"/>
<path class="st1" d="M271.5,28.2l5.6,4.6l-0.3,0.3l-1.8-1.4l-10.8,13.1l-2.1-1.7L272.9,30l-1.7-1.4L271.5,28.2z"/>
<path class="st1" d="M279.4,34.8l2,1.8l-11.7,13l-2-1.8L279.4,34.8z"/>
<path class="st1" d="M271.3,50.8l19.2-6l-6.9,18.9l-2.1-2.2l1.1-3l-7.8-8.3l-3.1,1L271.3,50.8z M275.3,50.1l7.5,7.9l4.2-11.5
	L275.3,50.1z"/>
<path class="st1" d="M305.2,63.2l-13.8,10.7l-0.3-0.4l3.4-2.7l1.2-13.4L285,65.7l-0.3-0.5l13.9-10.8l-1.2,14.2l7.5-5.8L305.2,63.2z"
	/>
</svg>
